<?xml version="1.0" encoding="UTF-8" standalone="no"?>
<svg width="90px" height="58px" viewBox="0 0 90 58" version="1.1" xmlns="http://www.w3.org/2000/svg" xmlns:xlink="http://www.w3.org/1999/xlink">
    <!-- Generator: Sketch 39.1 (31720) - http://www.bohemiancoding.com/sketch -->
    <title>Slice 1</title>
    <desc>Created with Sketch.</desc>
    <defs></defs>
    <g id="Page-1" stroke="none" stroke-width="1" fill="none" fill-rule="evenodd">
        <g id="noun_28822_cc" fill="#FCCA46">
            <path d="M16.216,11.964 L33.559,11.964 C34.449,11.964 35.171,11.242 35.171,10.352 C35.171,9.462 34.449,8.74 33.559,8.74 L16.216,8.74 C15.325,8.74 14.604,9.462 14.604,10.352 C14.604,11.242 15.326,11.964 16.216,11.964 L16.216,11.964 Z M16.216,24.167 L33.559,24.167 C34.449,24.167 35.171,23.444 35.171,22.555 C35.171,21.665 34.449,20.943 33.559,20.943 L16.216,20.943 C15.325,20.943 14.604,21.665 14.604,22.555 C14.604,23.445 15.326,24.167 16.216,24.167 L16.216,24.167 Z M89.478,15.265 L86.588,12.616 C86.289,12.344 85.901,12.192 85.497,12.192 L65.46,12.192 C63.594,5.402 57.403,0.389 50.042,0.34 C50.023,0.34 50.007,0.335 49.988,0.335 L1.612,0.335 C0.722,0.335 0,1.057 0,1.947 L0,30.961 C0,31.851 0.722,32.572 1.612,32.572 L17.468,32.572 L3.14,55.189 C2.826,55.685 2.806,56.316 3.09,56.831 C3.373,57.345 3.914,57.665 4.502,57.665 L20.399,57.665 C20.951,57.665 21.464,57.382 21.76,56.915 L29.68,44.412 C29.683,44.408 29.685,44.404 29.688,44.4 L37.181,32.572 L49.989,32.572 C50.008,32.572 50.024,32.567 50.043,32.566 C57.403,32.517 63.595,27.505 65.461,20.715 L85.498,20.715 C85.902,20.715 86.29,20.564 86.589,20.291 L89.479,17.642 C89.812,17.336 90,16.905 90,16.454 C90,16.003 89.812,15.571 89.478,15.265 L89.478,15.265 Z M27.458,41.896 L23.442,41.896 C22.552,41.896 21.831,42.617 21.831,43.507 C21.831,44.397 22.552,45.119 23.442,45.119 L25.416,45.119 L19.511,54.44 L7.43,54.44 L21.284,32.572 L33.364,32.572 L27.458,41.896 L27.458,41.896 Z M48.376,14.842 L45.878,14.842 C44.987,14.842 44.266,15.564 44.266,16.454 C44.266,17.344 44.988,18.066 45.878,18.066 L48.376,18.066 L48.376,29.35 L3.224,29.35 L3.224,3.559 L48.376,3.559 L48.376,14.842 L48.376,14.842 Z M51.6,29.229 L51.6,24.167 L53.885,24.167 C54.773,24.167 55.495,23.444 55.495,22.555 C55.495,21.665 54.772,20.943 53.885,20.943 L51.6,20.943 L51.6,18.065 L53.885,18.065 C54.773,18.065 55.495,17.343 55.495,16.453 C55.495,15.563 54.772,14.841 53.885,14.841 L51.6,14.841 L51.6,11.964 L53.885,11.964 C54.773,11.964 55.495,11.242 55.495,10.352 C55.495,9.462 54.772,8.74 53.885,8.74 L51.6,8.74 L51.6,3.678 C57.922,4.499 62.828,9.908 62.828,16.453 C62.828,22.998 57.922,28.408 51.6,29.229 L51.6,29.229 Z M84.872,17.491 L65.997,17.491 C66.019,17.146 66.05,16.803 66.05,16.453 C66.05,16.102 66.02,15.76 65.997,15.415 L84.872,15.415 L86.003,16.453 L84.872,17.491 L84.872,17.491 Z M23.442,14.842 C22.552,14.842 21.831,15.564 21.831,16.454 C21.831,17.344 22.552,18.066 23.442,18.066 L26.334,18.066 C27.224,18.066 27.945,17.344 27.945,16.454 C27.945,15.564 27.223,14.842 26.334,14.842 L23.442,14.842 L23.442,14.842 Z" id="Shape"></path>
        </g>
    </g>
</svg>