<?xml version="1.0" encoding="UTF-8" standalone="no"?>
<svg width="94px" height="94px" viewBox="0 0 94 94" version="1.1" xmlns="http://www.w3.org/2000/svg" xmlns:xlink="http://www.w3.org/1999/xlink">
    <!-- Generator: Sketch 39.1 (31720) - http://www.bohemiancoding.com/sketch -->
    <title>Slice 1</title>
    <desc>Created with Sketch.</desc>
    <defs></defs>
    <g id="Page-1" stroke="none" stroke-width="1" fill="none" fill-rule="evenodd">
        <g id="noun_25926_cc" fill="#FCCA46">
            <g id="Group">
                <path d="M91.65,52.419 C88.56,46.849 82.581,42.579 74.8,40.399 C73.64,40.069 71.1,38.79 69.48,37.889 L65.01,34.258 C63.9,33.359 62.56,32.918 61.23,32.918 C60.51,32.918 59.8,33.049 59.12,33.309 C42.24,20.518 21.46,4.768 19.69,3.329 C16.78,0.96 13.99,0.47 12.15,0.47 C9.82,0.47 8.19,1.249 7.59,1.579 L6.59,2.139 L5.87,3.03 L2.08,7.7 L0.54,9.589 L0.76,12.019 L1.06,15.32 L1.46,19.84 L5.91,20.68 L6.44,20.782 L5.71,26.68 L11.13,27.291 L10.33,32.82 L15.82,33.4 L15.02,38.881 L20.52,39.451 L19.71,44.93 L25.21,45.51 L24.41,50.981 L29.91,51.571 L29.1,57.04 L34.61,57.62 L33.8,63.099 L39.3,63.679 L38.49,69.15 L43.99,69.73 L43.18,75.21 L46.38,75.54 C47.06,77.53 47.86,79.339 48.78,80.79 C53.73,88.569 63.34,92.649 64.411,93.089 C65.14,93.38 65.911,93.53 66.681,93.53 C67.901,93.53 69.111,93.159 70.141,92.428 C70.37,92.268 75.7,88.469 80.12,83.03 C83.251,79.169 85.19,73.759 86.62,69.809 C86.88,69.069 87.21,68.149 87.471,67.498 C89.04,66.629 92.04,64.898 93.101,61.219 C93.88,58.53 93.391,55.569 91.65,52.419 L91.65,52.419 Z M40.65,57.79 L41.05,55.05 L38.7,52.019 L35.95,51.73 L36.36,48.99 L34.01,45.961 L31.25,45.67 L31.66,42.941 L29.31,39.91 L26.56,39.621 L26.96,36.881 L24.61,33.85 L21.86,33.561 L22.26,30.821 L19.91,27.792 L17.16,27.501 L17.56,24.761 L15.19,21.712 L12.41,21.402 L12.75,18.613 L10.15,15.383 L7.03,14.793 L6.74,11.482 L10.53,6.812 C10.53,6.812 11.14,6.472 12.15,6.472 C13.11,6.472 14.42,6.783 15.91,7.982 C17.8,9.521 38.87,25.492 54.581,37.392 L43.9,49.47 C42.83,50.691 42.29,52.29 42.42,53.909 C42.48,54.659 42.6,56.12 42.82,58.009 L40.65,57.79 L40.65,57.79 Z M82.81,63.44 C81.46,65.089 79.4,74.39 75.46,79.249 C71.511,84.11 66.681,87.53 66.681,87.53 C66.681,87.53 63.531,86.249 60.12,83.839 C57.85,82.239 55.471,80.12 53.841,77.569 C52.671,75.749 51.731,72.989 50.981,69.989 C50.771,69.159 50.572,68.309 50.401,67.45 C50.361,67.28 50.322,67.12 50.301,66.96 C48.931,60.259 48.401,53.45 48.401,53.45 L59.38,41.019 L61.231,38.919 L66.091,42.86 C66.091,42.86 70.591,45.44 73.181,46.169 C74.481,46.54 76.971,47.31 79.551,48.769 C82.091,50.21 84.721,52.3 86.401,55.33 C89.77,61.409 84.15,61.79 82.81,63.44 L82.81,63.44 Z" id="Shape"></path>
                <path d="M70.141,56.073 C70.352,56.073 70.571,56.124 70.791,56.245 C72.098,56.97 72.681,57.913 71.953,59.229 C71.224,60.547 70.557,61.75 70.557,61.75 L69.785,70.113 C69.785,70.113 69.403,72.49 66.846,72.49 C66.782,72.49 66.715,72.488 66.647,72.484 C63.907,72.355 64.91,69.851 64.91,69.851 L68.28,57.289 C68.28,57.29 69.112,56.073 70.141,56.073 L70.141,56.073 Z M70.141,50.073 L70.141,50.073 C66.246,50.073 63.94,53.007 63.326,53.905 C62.944,54.463 62.66,55.083 62.485,55.735 L59.17,68.095 C58.745,69.398 58.166,72.243 59.924,74.978 C60.716,76.21 62.606,78.302 66.365,78.48 C66.532,78.488 66.69,78.492 66.846,78.492 C71.881,78.492 75.117,74.756 75.709,71.068 C75.73,70.935 75.748,70.8 75.76,70.668 L76.416,63.557 L77.203,62.135 C79.494,57.99 78.053,53.412 73.701,51 C72.6,50.392 71.374,50.073 70.141,50.073 L70.141,50.073 L70.141,50.073 Z" id="Shape"></path>
                <circle id="Oval" cx="55.086" cy="56.449" r="2.501"></circle>
            </g>
        </g>
    </g>
</svg>