<?xml version="1.0" encoding="UTF-8" standalone="no"?>
<svg width="90px" height="90px" viewBox="0 0 90 90" version="1.1" xmlns="http://www.w3.org/2000/svg" xmlns:xlink="http://www.w3.org/1999/xlink">
    <!-- Generator: Sketch 39.1 (31720) - http://www.bohemiancoding.com/sketch -->
    <title>Slice 1</title>
    <desc>Created with Sketch.</desc>
    <defs></defs>
    <g id="Page-1" stroke="none" stroke-width="1" fill="none" fill-rule="evenodd">
        <g id="noun_65339_cc" fill="#FCCA46">
            <g id="Group">
                <path d="M89.557,40.46 L62.753,0.449 L62.456,0 L61.915,0.038 L20.499,2.947 L20.038,2.98 L19.786,3.37 L0.37,33.267 L0,33.837 L0.424,34.369 L2.936,37.507 L3.241,37.888 L3.727,37.854 L11.32,37.318 L11.542,37.302 L11.569,37.526 L14.517,63.092 L11.198,63.945 C11.067,63.97 10.936,64.006 10.809,64.049 C8.891,64.733 8.13,67.387 9.079,70.096 C9.85,72.3 11.502,73.816 13.19,73.867 C13.533,73.877 13.865,73.827 14.187,73.714 L17.999,72.521 L43.877,89.68 L44.357,90 L44.855,89.709 L76.232,71.403 L76.633,71.17 L76.69,70.709 L79.595,47.68 L79.614,47.535 L79.752,47.488 L85.174,45.591 L85.362,45.523 L85.509,45.384 L86.052,44.87 L88.223,42.808 L89.421,41.67 L90,41.124 L89.557,40.46 L89.557,40.46 Z M13.033,71.043 C12.94,71.078 12.835,71.092 12.733,71.089 C12.108,71.07 11.454,70.431 11.139,69.529 C10.765,68.459 11.003,67.392 11.673,67.156 C11.769,67.122 11.869,67.105 11.975,67.109 C12.597,67.129 13.25,67.771 13.566,68.669 C13.943,69.741 13.701,70.805 13.033,71.043 L13.033,71.043 Z M6.772,34.699 L20.731,13.604 L22.856,17.485 L11.728,34.349 L6.772,34.699 L6.772,34.699 Z M16.059,70.656 C16.17,69.814 16.062,68.87 15.748,67.969 C15.471,67.177 15.056,66.468 14.543,65.909 L27.188,62.659 C27.326,62.612 27.462,62.589 27.604,62.595 C28.305,62.616 29.017,63.261 29.334,64.161 C29.525,64.706 29.55,65.272 29.405,65.751 C29.265,66.219 28.981,66.55 28.607,66.685 L16.059,70.656 L16.059,70.656 Z M42.161,84.89 L21.741,71.35 L29.599,68.889 C31.533,68.201 32.369,65.713 31.503,63.23 C30.811,61.258 29.235,59.903 27.58,59.852 C27.229,59.842 26.885,59.893 26.537,60.006 L17.478,62.334 L14.448,36.061 L14.271,34.519 L23.989,19.791 L42.188,52.994 L42.161,84.89 L42.161,84.89 Z M21.192,9.997 L21.006,9.661 L20.792,9.981 L4.434,34.701 L3.599,33.658 L21.277,6.436 L47.439,53.926 L46.095,55.199 L21.192,9.997 L21.192,9.997 Z M73.925,69.36 L44.683,86.42 L44.707,57.346 L44.808,57.527 L44.942,57.78 L45.365,58.561 L45.459,58.736 L45.645,58.671 L76.616,47.839 L73.925,69.36 L73.925,69.36 Z M84.215,43.312 L47.647,56.062 L49.653,54.158 L85.502,42.091 L84.215,43.312 L84.215,43.312 Z M49.085,52.402 L23.41,5.802 L60.918,3.167 L85.809,40.114 L49.085,52.402 L49.085,52.402 Z" id="Shape"></path>
                <path d="M21.047,51.709 C22.939,57.031 27.282,60.334 30.749,59.082 C34.214,57.832 35.488,52.502 33.596,47.178 C31.702,41.856 27.358,38.553 23.89,39.804 C20.427,41.054 19.154,46.385 21.047,51.709 L21.047,51.709 Z M25.966,42.144 C25.992,42.146 26.016,42.146 26.039,42.147 C25.241,44.302 25.326,47.148 26.281,49.834 C27.231,52.508 28.951,54.753 30.916,55.913 C30.594,56.204 30.238,56.42 29.853,56.56 C29.477,56.694 29.076,56.757 28.663,56.746 C26.349,56.677 23.924,54.35 22.765,51.088 C22.083,49.17 21.928,47.195 22.327,45.528 C22.715,43.897 23.592,42.761 24.791,42.327 C25.159,42.196 25.554,42.133 25.966,42.144 L25.966,42.144 Z" id="Shape"></path>
            </g>
        </g>
    </g>
</svg>