<?xml version="1.0" encoding="UTF-8" standalone="no"?>
<svg width="90px" height="92px" viewBox="0 0 90 92" version="1.1" xmlns="http://www.w3.org/2000/svg" xmlns:xlink="http://www.w3.org/1999/xlink">
    <!-- Generator: Sketch 39.1 (31720) - http://www.bohemiancoding.com/sketch -->
    <title>Slice 1</title>
    <desc>Created with Sketch.</desc>
    <defs></defs>
    <g id="Page-1" stroke="none" stroke-width="1" fill="none" fill-rule="evenodd">
        <g id="noun_25931_cc" fill="#FCCA46">
            <g id="Group">
                <path d="M44.232,91.875 C43.506,91.875 42.781,91.612 42.21,91.092 C39.435,88.562 36.137,86.099 35.152,85.821 L35.152,85.821 C35.149,85.821 34.999,85.793 34.634,85.793 C32.356,85.793 27.965,86.804 26.465,87.193 C25.007,87.573 23.495,86.81 22.93,85.415 C21.52,81.934 19.611,78.286 18.844,77.61 C18.044,76.991 14.102,75.802 10.419,75.075 C8.94,74.783 7.907,73.437 8.007,71.932 C8.256,68.185 8.125,64.072 7.728,63.128 C7.275,62.222 4.237,59.444 1.233,57.197 C0.026,56.294 -0.323,54.634 0.418,53.32 C2.264,50.048 3.928,46.281 3.979,45.259 C3.965,44.251 2.439,40.428 0.713,37.091 C0.022,35.753 0.428,34.11 1.665,33.249 C4.747,31.104 7.88,28.435 8.369,27.536 C8.796,26.615 9.074,22.51 8.959,18.761 C8.913,17.254 9.993,15.947 11.481,15.707 C15.19,15.109 19.173,14.062 20.004,13.466 C20.785,12.825 22.823,9.249 24.353,5.823 C24.966,4.448 26.503,3.741 27.946,4.17 C30.144,4.822 34.345,5.857 36.263,5.857 C36.494,5.857 36.592,5.84 36.593,5.84 C37.579,5.6 40.964,3.261 43.829,0.835 C44.98,-0.142 46.676,-0.107 47.789,0.907 C50.563,3.436 53.86,5.898 54.845,6.177 L54.845,6.176 C54.847,6.176 54.996,6.205 55.368,6.205 C57.64,6.205 62.034,5.195 63.536,4.806 C64.994,4.431 66.505,5.19 67.07,6.585 C68.479,10.065 70.388,13.713 71.156,14.389 C71.954,15.007 75.895,16.197 79.581,16.925 C81.06,17.218 82.092,18.564 81.992,20.068 C81.744,23.814 81.875,27.928 82.272,28.872 C82.725,29.779 85.763,32.557 88.767,34.806 C89.974,35.709 90.323,37.369 89.581,38.682 C87.735,41.953 86.072,45.717 86.02,46.739 C86.034,47.754 87.559,51.577 89.283,54.909 C89.975,56.247 89.568,57.89 88.333,58.751 C85.251,60.896 82.12,63.565 81.631,64.464 C81.205,65.385 80.928,69.491 81.043,73.241 C81.089,74.748 80.008,76.055 78.52,76.295 C74.811,76.891 70.83,77.938 69.999,78.534 C69.213,79.178 67.175,82.753 65.645,86.178 C65.031,87.551 63.497,88.257 62.051,87.83 C59.853,87.178 55.651,86.142 53.733,86.142 C53.503,86.142 53.405,86.16 53.404,86.16 C52.423,86.398 49.036,88.739 46.169,91.166 C45.61,91.639 44.92,91.875 44.232,91.875 L44.232,91.875 Z M34.634,79.792 C35.397,79.792 36.04,79.859 36.599,79.998 C38.774,80.537 42.002,82.998 44.303,84.945 C46.673,83.085 49.987,80.745 52.178,80.285 C52.638,80.187 53.148,80.14 53.734,80.14 C55.889,80.14 59.054,80.833 61.262,81.394 C62.593,78.689 64.571,75.134 66.351,73.769 C68.123,72.407 72.058,71.415 75.014,70.828 C75.035,67.813 75.268,63.761 76.275,61.761 C77.282,59.758 80.399,57.156 82.807,55.343 C81.523,52.617 79.981,48.862 80.023,46.622 C80.063,44.385 81.74,40.691 83.123,38.015 C80.778,36.119 77.754,33.409 76.817,31.371 C75.88,29.333 75.793,25.275 75.88,22.262 C72.948,21.569 69.053,20.436 67.327,19.01 C65.599,17.581 63.752,13.96 62.518,11.211 C60.426,11.665 57.488,12.206 55.367,12.206 C54.601,12.206 53.957,12.139 53.395,12 C51.223,11.463 47.996,9.002 45.694,7.055 C43.324,8.915 40.01,11.255 37.818,11.714 C37.36,11.811 36.85,11.858 36.261,11.858 C34.105,11.858 30.941,11.167 28.734,10.606 C27.404,13.311 25.427,16.866 23.65,18.231 C21.873,19.593 17.94,20.585 14.985,21.173 C14.965,24.188 14.732,28.239 13.723,30.24 C12.716,32.242 9.598,34.844 7.189,36.657 C8.474,39.383 10.016,43.137 9.976,45.376 C9.934,47.615 8.258,51.31 6.875,53.986 C9.22,55.882 12.244,58.59 13.18,60.628 C14.117,62.664 14.204,66.724 14.116,69.737 C17.048,70.43 20.943,71.563 22.668,72.987 C24.397,74.417 26.246,78.038 27.479,80.789 C29.573,80.335 32.514,79.792 34.634,79.792 L34.634,79.792 Z" id="Shape"></path>
                <path d="M45,55.396 C39.819,55.396 35.604,51.181 35.604,46 C35.604,40.819 39.819,36.604 45,36.604 C50.181,36.604 54.396,40.819 54.396,46 C54.396,51.181 50.181,55.396 45,55.396 L45,55.396 Z M45,42.604 C43.127,42.604 41.604,44.127 41.604,46 C41.604,47.873 43.127,49.396 45,49.396 C46.872,49.396 48.396,47.873 48.396,46 C48.396,44.127 46.872,42.604 45,42.604 L45,42.604 Z" id="Shape"></path>
                <path d="M45,63.361 C35.427,63.361 27.64,55.573 27.64,46 C27.64,36.428 35.428,28.641 45,28.641 C54.572,28.641 62.359,36.428 62.359,46 C62.359,55.573 54.572,63.361 45,63.361 L45,63.361 Z M45,34.641 C38.736,34.641 33.64,39.737 33.64,46 C33.64,52.265 38.736,57.361 45,57.361 C51.264,57.361 56.359,52.264 56.359,46 C56.359,39.736 51.264,34.641 45,34.641 L45,34.641 Z" id="Shape"></path>
            </g>
        </g>
    </g>
</svg>