<?xml version="1.0" encoding="UTF-8" standalone="no"?>
<svg width="56px" height="92px" viewBox="0 0 56 92" version="1.1" xmlns="http://www.w3.org/2000/svg" xmlns:xlink="http://www.w3.org/1999/xlink">
    <!-- Generator: Sketch 39.1 (31720) - http://www.bohemiancoding.com/sketch -->
    <title>Slice 1</title>
    <desc>Created with Sketch.</desc>
    <defs></defs>
    <g id="Page-1" stroke="none" stroke-width="1" fill="none" fill-rule="evenodd">
        <g id="noun_154465_cc" fill="#FCCA46">
            <path d="M55.3,4.6 C55.3,2.8 54,1.3 52.3,1 C50.7,0.8 49.1,0.8 47.6,0.9 C46.3,1 45.3,1.7 44.6,2.8 C44.4,3.1 44.3,3.4 43.8,3.5 C41.9,3.7 39.9,4 38,4.3 C37.4,4.4 36.9,4.3 36.4,3.9 C35.1,2.8 33.6,2.4 32,2.6 C30.4,2.8 28.8,3 27.2,3.2 C23,3.7 18.9,4.4 14.7,4.6 C8.1,5 1.9,10.7 1,17.2 C0.6,19.9 0.6,19.9 3.3,19.9 C4.3,19.9 4.8,19.7 5.3,18.8 C7.3,15.4 10.2,13.1 14,11.9 C14.7,11.7 15.1,11.7 15.2,12.6 C15.4,14.4 15.7,16.2 16,18 C16.4,20.3 16.5,22.8 18.5,24.5 C18.8,24.8 18.6,25.1 18.6,25.4 C18.6,39.6 18.1,53.8 17.8,68 C17.7,72 17.8,76.1 17.3,80.1 C17.1,81.8 16.7,83.4 17.2,85 C18.4,89.3 22.6,91.9 26.9,91 C31.2,90.1 34.1,85.9 33.2,81.4 C32.7,78.8 32.7,76.3 32.6,73.7 C32.4,65.6 32.2,57.6 32,49.5 C31.8,41.6 31.7,33.6 31.6,25.7 C31.6,25.3 31.5,24.8 31.9,24.4 C33.2,23.2 33.7,21.7 34,20 C34.4,17.8 35.3,17 37.5,16.8 C39.7,16.6 41.9,17.2 44.1,17.4 C44.5,17.4 44.7,17.8 44.9,18.1 C45.6,19.3 46.7,19.9 48.1,20 C49.4,20.1 50.7,20.1 52,20 C54.3,19.9 55.7,18.3 55.7,16 L55.7,10.5 C55.3,8.5 55.4,6.5 55.3,4.6 L55.3,4.6 Z M5.8,10.7 C4.4,12.5 3.5,14.5 3,16.8 C3,17.1 2.9,17.3 2.6,17.3 C2.3,17.3 2.3,17.1 2.3,16.7 C2.8,14.3 3.8,12.2 5.2,10.3 C5.4,10.1 5.6,9.8 5.9,10.1 C6.2,10.3 6,10.5 5.8,10.7 L5.8,10.7 Z M17.3,5.9 C16.8,6 16.5,5.9 16.5,5.6 C16.5,5.3 16.7,5.2 17,5.2 C18.9,5 20.7,4.7 22.6,4.5 C22.9,4.5 23.1,4.5 23.2,4.8 C23.2,5.1 23,5.2 22.7,5.2 L22.3,5.2 C20.5,5.5 18.8,5.7 17.3,5.9 L17.3,5.9 Z M27.7,87.4 C25.8,88.5 23.9,88.5 22.1,87.3 C20.3,86.1 19.5,84.3 19.8,82.1 C20.7,76.7 20.5,71.2 20.6,65.7 C21,52.9 21.3,40 21.3,27.2 C21.3,26.5 21.5,26.3 22.2,26.4 C23.9,26.6 25.7,26.6 27.4,26.4 C28.1,26.3 28.4,26.4 28.3,27.2 L28.3,36.8 L28.4,36.8 C28.7,48 28.9,59.2 29.2,70.4 C29.3,74.4 29.3,78.5 30,82.5 C30.5,84.5 29.5,86.2 27.7,87.4 L27.7,87.4 Z M34.3,4.3 C34.2,4.6 33.9,4.6 33.4,4.4 C33,4.3 32.4,4.2 31.7,4.3 C31.4,4.3 31.2,4.2 31.2,3.9 C31.2,3.6 31.5,3.6 31.7,3.5 C32.4,3.5 33.2,3.4 33.9,3.7 C34.1,3.8 34.4,3.8 34.3,4.3 L34.3,4.3 Z M42.6,5 C41.3,5.2 40.1,5.4 39,5.5 C38.5,5.5 38,5.7 38,5.2 C38,4.8 38.4,4.9 38.7,4.8 C40,4.6 41.2,4.4 42.5,4.2 C42.8,4.2 43.1,4.1 43.2,4.5 C43.1,5 42.8,5 42.6,5 L42.6,5 Z M44.9,14.8 C44.5,14.9 44.5,14.5 44.5,14.2 L44.5,6.4 C44.5,6.2 44.5,5.8 44.8,5.8 C45.2,5.8 45.2,6.1 45.2,6.4 L45.2,10.4 L45.2,14.1 C45.1,14.3 45.3,14.7 44.9,14.8 L44.9,14.8 Z M50.5,2.3 C50.3,2.3 50,2.3 50,1.9 C50.1,1.6 50.3,1.6 50.6,1.6 C52.5,1.7 54.3,3.5 54.3,5.3 C54.2,5.5 54.5,5.9 54,6 C53.7,6 53.7,5.7 53.6,5.4 C53.5,3.6 52.3,2.6 50.5,2.3 L50.5,2.3 Z M54.1,11.7 C53.2,11.6 53.8,10.5 53.7,9.8 C53.6,9.3 53.7,8.7 53.7,8.2 C53.7,8 53.8,7.8 54.1,7.8 C54.4,7.8 54.4,8 54.4,8.2 L54.4,9.9 C54.2,10.5 54.6,11.8 54.1,11.7 L54.1,11.7 Z" id="Shape"></path>
            <path d="M28.3,68.9 C28.3,71.3 28.2,73.6 28.1,76 C28.1,76.2 28.1,76.4 28,76.6 C27.9,77 27.8,77.4 27.3,77.3 C26.8,77.2 26.8,76.8 26.8,76.4 C27.2,72 27,67.7 27,63.3 C27,54.4 26.8,45.5 26.5,36.6 C26.5,36.1 26.4,35.4 27.1,35.4 C27.8,35.4 27.7,36 27.7,36.5 L27.7,50 C28,50 28.3,62.6 28.3,68.9 L28.3,68.9 Z" id="Shape"></path>
            <path d="M23.5,34.7 C23.3,42.4 23.2,49.7 23,57 C22.8,62.9 22.8,68.7 22.2,74.5 C22.2,74.7 22.2,74.9 22.1,75.1 C22,75.5 21.8,75.8 21.3,75.7 C20.9,75.6 20.9,75.3 20.9,74.9 C21.7,67.1 21.7,59.3 21.9,51.5 C22.1,46 22.2,40.4 22.3,34.9 C22.3,34.5 22.1,33.9 22.8,33.8 C23.6,33.9 23.5,34.6 23.5,34.7 L23.5,34.7 Z" id="Shape"></path>
            <path d="M25.6,49.2 C25.4,55.7 25.3,62.3 25.1,68.8 C25.1,69.3 25.2,69.9 24.4,69.8 C23.8,69.7 23.9,69.2 23.9,68.7 C24.1,62 24.2,55.2 24.4,48.5 C24.4,47.3 24.5,46 24.5,44.8 C24.5,44.3 24.6,43.9 25.1,43.9 C25.7,43.9 25.6,44.4 25.6,44.8 L25.6,49.2 L25.6,49.2 L25.6,49.2 Z" id="Shape"></path>
            <path d="M21,82.3 C21.1,81.9 20.9,81.3 21.5,81.3 C22.2,81.2 22.1,81.8 22.1,82.2 C22.2,84 23,84.8 24.8,85 C25.2,85.1 25.8,84.9 25.8,85.6 C25.7,86.3 25.1,86.1 24.6,86.1 C22.3,85.9 21,84.5 21,82.3 L21,82.3 Z" id="Shape"></path>
        </g>
    </g>
</svg>