<?xml version="1.0" encoding="UTF-8" standalone="no"?>
<svg width="4px" height="5px" viewBox="0 0 4 5" version="1.1" xmlns="http://www.w3.org/2000/svg" xmlns:xlink="http://www.w3.org/1999/xlink">
    <!-- Generator: Sketch 39.1 (31720) - http://www.bohemiancoding.com/sketch -->
    <title>Slice 1</title>
    <desc>Created with Sketch.</desc>
    <defs></defs>
    <g id="Page-1" stroke="none" stroke-width="1" fill="none" fill-rule="evenodd">
        <g id="noun_586024_cc" fill="#FCCA46">
            <g id="Group">
                <path d="M2.116,2.715 C2.287,2.767 2.395,2.574 2.406,2.432 C2.413,2.352 2.358,2.273 2.273,2.274 C2.209,2.274 2.125,2.334 2.088,2.402 C1.999,2.502 1.972,2.671 2.116,2.715 L2.116,2.715 Z" id="Shape"></path>
                <path d="M1.875,2.602 C1.874,2.748 1.841,2.932 2.043,2.947 C2.269,2.964 2.445,2.82 2.548,2.63 C2.628,2.484 2.684,2.217 2.53,2.095 C2.359,1.957 2.164,2.169 2.045,2.273 C2.024,2.293 2.053,2.33 2.077,2.313 C2.171,2.249 2.352,2.055 2.467,2.16 C2.514,2.204 2.508,2.312 2.506,2.369 C2.503,2.442 2.479,2.507 2.447,2.573 C2.38,2.716 2.277,2.807 2.124,2.846 C2.057,2.863 1.972,2.867 1.943,2.792 C1.922,2.735 1.913,2.66 1.905,2.601 C1.902,2.582 1.875,2.581 1.875,2.602 L1.875,2.602 Z" id="Shape"></path>
                <path d="M1.73,3.152 C1.862,3.303 2.043,3.315 2.222,3.251 C2.412,3.182 2.554,3.016 2.67,2.859 C2.851,2.615 2.997,2.246 2.862,1.951 C2.795,1.802 2.621,1.729 2.465,1.752 C2.37,1.767 2.284,1.795 2.198,1.836 C2.11,1.877 2.048,1.931 1.978,1.995 C1.949,2.021 1.986,2.065 2.02,2.047 C2.218,1.936 2.645,1.702 2.761,2.041 C2.799,2.151 2.763,2.284 2.73,2.39 C2.693,2.503 2.636,2.611 2.57,2.71 C2.485,2.838 2.365,2.93 2.231,3.001 C2.115,3.062 1.993,3.106 1.867,3.049 C1.721,2.983 1.691,2.792 1.708,2.649 C1.728,2.484 1.802,2.291 1.906,2.159 C1.925,2.137 1.891,2.104 1.874,2.128 C1.811,2.206 1.747,2.274 1.699,2.365 C1.651,2.454 1.62,2.552 1.603,2.652 C1.588,2.745 1.574,2.846 1.597,2.938 C1.617,3.023 1.675,3.089 1.73,3.152 L1.73,3.152 Z" id="Shape"></path>
                <path d="M1.392,3.253 C1.486,3.383 1.643,3.48 1.799,3.51 C2.207,3.589 2.609,3.285 2.843,2.982 C2.894,2.915 2.938,2.845 2.98,2.772 C3.029,2.687 3.087,2.61 3.13,2.521 C3.173,2.435 3.195,2.34 3.205,2.245 C3.217,2.133 3.178,2.031 3.139,1.929 C3.133,1.915 3.123,1.909 3.113,1.909 C3.111,1.907 3.11,1.905 3.108,1.903 C2.994,1.741 2.83,1.589 2.635,1.536 C2.431,1.48 2.221,1.55 2.043,1.651 C1.657,1.87 1.37,2.267 1.296,2.704 C1.265,2.895 1.276,3.092 1.392,3.253 L1.392,3.253 Z M1.875,1.971 C2.041,1.815 2.25,1.688 2.479,1.669 C2.714,1.649 2.897,1.785 3.043,1.955 C3.053,1.966 3.065,1.969 3.077,1.966 C3.062,2.082 3.03,2.197 3.01,2.312 C3,2.372 2.984,2.431 2.971,2.49 C2.958,2.55 2.948,2.625 2.92,2.679 C2.815,2.88 2.675,3.074 2.495,3.216 C2.201,3.446 1.628,3.585 1.483,3.122 C1.351,2.7 1.567,2.259 1.875,1.971 L1.875,1.971 Z" id="Shape"></path>
                <path d="M3.187,2.819 C3.136,2.911 3.075,3 3.01,3.081 C2.88,3.241 2.714,3.36 2.554,3.489 C2.534,3.504 2.556,3.539 2.579,3.53 C2.785,3.446 2.975,3.317 3.139,3.167 C3.22,3.092 3.288,3.005 3.343,2.907 C3.387,2.829 3.392,2.736 3.41,2.649 C3.48,2.322 3.426,1.978 3.255,1.689 C3.175,1.554 3.069,1.425 2.927,1.356 C2.756,1.273 2.543,1.279 2.36,1.31 C2.161,1.342 1.958,1.452 1.796,1.568 C1.633,1.686 1.504,1.833 1.414,2.013 C1.41,2.02 1.407,2.027 1.403,2.034 C1.393,2.055 1.422,2.071 1.434,2.052 C1.534,1.898 1.672,1.768 1.825,1.666 C1.99,1.556 2.162,1.505 2.354,1.469 C2.658,1.411 3.001,1.488 3.171,1.763 C3.317,1.999 3.367,2.351 3.298,2.621 C3.279,2.698 3.225,2.752 3.187,2.819 L3.187,2.819 Z" id="Shape"></path>
                <path d="M1.276,2.248 C1.245,2.29 1.206,2.323 1.176,2.367 C1.143,2.414 1.118,2.469 1.094,2.521 C1.046,2.621 1.021,2.727 0.995,2.835 C0.971,2.941 0.959,3.058 0.996,3.162 C1.013,3.207 1.041,3.246 1.07,3.283 C1.116,3.34 1.14,3.403 1.173,3.468 C1.285,3.689 1.49,3.706 1.709,3.744 C1.814,3.763 1.915,3.791 2.022,3.795 C2.13,3.8 2.241,3.727 2.333,3.678 C2.375,3.656 2.345,3.588 2.3,3.603 C2.132,3.659 1.943,3.648 1.772,3.609 C1.584,3.567 1.407,3.571 1.319,3.369 C1.3,3.325 1.28,3.281 1.259,3.237 C1.241,3.201 1.201,3.169 1.178,3.136 C1.125,3.06 1.123,2.938 1.121,2.85 C1.118,2.746 1.155,2.64 1.194,2.544 C1.213,2.499 1.235,2.456 1.257,2.413 C1.28,2.371 1.293,2.32 1.317,2.279 C1.332,2.255 1.294,2.225 1.276,2.248 L1.276,2.248 Z" id="Shape"></path>
                <path d="M2.153,4.053 C2.387,3.986 2.602,3.874 2.8,3.733 C2.99,3.599 3.183,3.447 3.339,3.274 C3.49,3.104 3.626,2.92 3.709,2.707 C3.791,2.498 3.796,2.256 3.759,2.037 C3.667,1.48 3.178,0.966 2.594,0.972 C2.284,0.976 2.002,1.115 1.766,1.304 C1.528,1.495 1.316,1.719 1.109,1.945 C1.077,1.978 1.125,2.022 1.159,1.993 C1.324,1.851 1.483,1.702 1.65,1.563 C1.819,1.423 2.034,1.306 2.238,1.229 C2.444,1.152 2.658,1.133 2.87,1.199 C3.066,1.26 3.236,1.4 3.36,1.562 C3.491,1.733 3.586,1.931 3.61,2.147 C3.638,2.384 3.562,2.6 3.468,2.814 C3.273,3.261 2.868,3.609 2.436,3.817 C2.03,4.013 1.517,4.037 1.156,3.736 C0.985,3.593 0.873,3.396 0.855,3.171 C0.837,2.912 0.976,2.68 0.978,2.427 C0.978,2.369 0.906,2.36 0.876,2.402 C0.804,2.504 0.772,2.62 0.74,2.739 C0.705,2.871 0.683,3.006 0.68,3.142 C0.675,3.38 0.748,3.6 0.907,3.776 C1.207,4.111 1.744,4.171 2.153,4.053 L2.153,4.053 Z" id="Shape"></path>
                <path d="M3.861,1.636 C3.745,1.364 3.618,1.086 3.388,0.889 C3.3,0.812 3.187,0.767 3.076,0.735 C2.952,0.699 2.81,0.668 2.681,0.665 C2.553,0.662 2.418,0.691 2.299,0.735 C2.171,0.783 2.07,0.88 1.953,0.945 C1.704,1.085 1.448,1.22 1.306,1.478 C1.297,1.493 1.32,1.512 1.332,1.497 C1.496,1.278 1.723,1.152 1.969,1.045 C2.182,0.953 2.4,0.853 2.635,0.836 C2.761,0.827 2.878,0.807 3.003,0.831 C3.114,0.852 3.225,0.893 3.314,0.966 C3.534,1.144 3.645,1.433 3.792,1.666 C3.813,1.701 3.879,1.677 3.861,1.636 L3.861,1.636 Z" id="Shape"></path>
                <path d="M1.767,4.273 C1.896,4.287 2.017,4.332 2.147,4.335 C2.255,4.337 2.345,4.304 2.437,4.248 C2.527,4.194 2.609,4.127 2.71,4.091 C2.815,4.053 2.907,3.99 2.995,3.921 C3.082,3.853 3.164,3.776 3.254,3.711 C3.349,3.642 3.44,3.576 3.518,3.486 C3.595,3.397 3.648,3.288 3.698,3.182 C3.749,3.077 3.796,2.956 3.818,2.84 C3.82,2.822 3.792,2.808 3.783,2.827 C3.694,3.044 3.593,3.228 3.414,3.386 C3.329,3.459 3.23,3.51 3.135,3.567 C3.048,3.619 2.972,3.687 2.896,3.75 C2.815,3.818 2.73,3.876 2.636,3.923 C2.55,3.966 2.482,4.038 2.405,4.095 C2.312,4.164 2.229,4.201 2.113,4.211 C1.997,4.221 1.881,4.234 1.766,4.226 C1.734,4.224 1.736,4.271 1.767,4.273 L1.767,4.273 Z" id="Shape"></path>
            </g>
        </g>
    </g>
</svg>